# xmcd CD database file generated by OrangeCD 4.2
#
# Track frame offsets:
#	150
#	15748
#	35143
#	60830
#	75253
#	90983
#	104420
#	117775
#	143753
#	156580
#	171323
#	191490
#	204083
#	218153
#	239458
#	257575
#
# Disc length: 3705 seconds
#
# Revision: 0
# Processed by: cddbd v1.5.2PL0 Copyright (c) Steve Scherf et al.
# Submitted via: OrangeCD 4.2
#
DISCID=cd0e7710
DTITLE=Various Artist - Back To The Streets - Music Of Don Covay
DYEAR=1993
DGENRE=Blues
TTITLE0=Ron Wood - Chain Of Fools
TTITLE1=Robert Cray - He Don't Know
TTITLE2=Bobby Womack - Checkin' Out
TTITLE3=Iggy Pop - Sookie Sookie
TTITLE4=Peter Wolf - I Stole Some Love
TTITLE5=Arlene Smith - Johnny Colla - Letter Full Of Tears
TTITLE6=Corey Glover - Three Time loser
TTITLE7=Ben E. King - Victims
TTITLE8=Jim Carroll - Long Tall Sally
TTITLE9=Todd Rundgren/Gary US Bonds/Chuck Jackson - Mercy Mercy
TTITLE10=Nona Hendryx - We Can't Make It No More
TTITLE11=Barrence Whitfield - Pony Time
TTITLE12=Billy Squier - See Saw
TTITLE13=Mick Taylor/Chuck St. Troy - Somebody's Enjoying My Home
TTITLE14=Jimmy Witherspoon - Thunder
TTITLE15=Soul Summit - Back To The Streets
EXTD=
EXTT0=
EXTT1=
EXTT2=
EXTT3=
EXTT4=
EXTT5=
EXTT6=
EXTT7=
EXTT8=
EXTT9=
EXTT10=
EXTT11=
EXTT12=
EXTT13=
EXTT14=
EXTT15=
PLAYORDER=
